<?xml version="1.0" encoding="UTF-8"?>
<svg width="234px" height="41px" viewBox="0 0 234 41" version="1.1" xmlns="http://www.w3.org/2000/svg" xmlns:xlink="http://www.w3.org/1999/xlink">
    <!-- Generator: Sketch 58 (84663) - https://sketch.com -->
    <title>Stream Official</title>
    <desc>Created with Sketch.</desc>
    <g id="Page-1" stroke="none" stroke-width="1" fill="none" fill-rule="evenodd">
        <g id="Stream-Official">
            <path d="M97.624,33.7999409 C97.9600017,33.5012728 98.2586654,33.1652761 98.52,32.7919409 C98.7813346,32.4186057 98.912,31.9892767 98.912,31.5039409 C98.912,30.9066046 98.6973355,30.4026097 98.268,29.9919409 C97.8386645,29.5812722 97.3160031,29.2359423 96.7,28.9559409 C96.0839969,28.6759395 95.4400034,28.461275 94.768,28.3119409 C94.0959966,28.1626069 93.5360022,28.0319415 93.088,27.9199409 C91.8559938,27.6212728 90.6986721,27.2572764 89.616,26.8279409 C88.5333279,26.3986055 87.5906707,25.875944 86.788,25.2599409 C85.9853293,24.6439379 85.350669,23.9159451 84.884,23.0759409 C84.417331,22.2359367 84.184,21.2372801 84.184,20.0799409 C84.184,18.9972689 84.4453307,17.9799457 84.968,17.0279409 C85.4906693,16.0759362 86.1906623,15.2359446 87.068,14.5079409 C87.9453377,13.7799373 88.9719941,13.2012764 90.148,12.7719409 C91.3240059,12.3426055 92.5653268,12.1279409 93.872,12.1279409 C95.0293391,12.1279409 96.1306614,12.2959393 97.176,12.6319409 C98.2213386,12.9679426 99.1639958,13.4252714 100.004,14.0039409 C100.844004,14.5826105 101.55333,15.2826035 102.132,16.1039409 C102.71067,16.9252784 103.093332,17.8399359 103.28,18.8479409 L98.408,20.0239409 C98.1839989,19.1279365 97.6986704,18.3812773 96.952,17.7839409 C96.2053296,17.1866046 95.1786732,16.8879409 93.872,16.8879409 C93.4239978,16.8879409 92.9573358,16.9532736 92.472,17.0839409 C91.9866642,17.2146083 91.5386687,17.4106063 91.128,17.6719409 C90.7173313,17.9332756 90.3720014,18.2506057 90.092,18.6239409 C89.8119986,18.9972761 89.672,19.4266052 89.672,19.9119409 C89.672,20.4346102 89.8306651,20.8826057 90.148,21.2559409 C90.4653349,21.6292761 90.8479978,21.9372731 91.296,22.1799409 C91.7440022,22.4226088 92.2293307,22.6186069 92.752,22.7679409 C93.2746693,22.917275 93.7599978,23.0479404 94.208,23.1599409 C96.1866766,23.6452767 97.8293268,24.1679381 99.136,24.7279409 C100.442673,25.2879437 101.487996,25.9039376 102.272,26.5759409 C103.056004,27.2479443 103.606665,27.9852703 103.924,28.7879409 C104.241335,29.5906116 104.4,30.4959359 104.4,31.5039409 C104.4,32.6986136 104.129336,33.8186024 103.588,34.8639409 C103.046664,35.9092795 102.300005,36.8146038 101.348,37.5799409 C100.395995,38.3452781 99.25734,38.9426055 97.932,39.3719409 C96.60666,39.8012764 95.1786743,40.0159409 93.648,40.0159409 C91.3333218,40.0159409 89.2706757,39.4466133 87.46,38.3079409 C85.6493243,37.1692686 84.4266698,35.6479505 83.792,33.7439409 L88.384,31.6719409 C88.9813363,32.9786141 89.746662,33.8652719 90.68,34.3319409 C91.613338,34.7986099 92.6773274,35.0319409 93.872,35.0319409 C95.3653408,35.0319409 96.615995,34.6212784 97.624,33.7999409 L97.624,33.7999409 Z M122.176,39.3439409 C120.645326,39.8666102 119.133341,40.1839404 117.64,40.2959409 C116.146659,40.4079415 114.802673,40.193277 113.608,39.6519409 C112.413327,39.1106049 111.44267,38.1586144 110.696,36.7959409 C109.94933,35.4332675 109.576,33.5199533 109.576,31.0559409 L109.576,18.6264039 L105.124756,18.6264039 L105.124756,12.712708 C105.124756,12.712708 105.516724,12.7127084 106.341064,12.7127084 C107.795776,12.7127084 109.093713,12.3573003 110.009644,10.8803109 C110.398068,10.2539546 110.448593,9.61324307 110.495728,7.87652634 L110.495728,5.82574509 L115.159302,5.82574509 L115.159302,12.712708 L120.657104,12.712708 L120.657104,18.6264039 L115.159302,18.6264039 L115.008,31.8959409 C115.008,32.7919454 115.110666,33.5012717 115.316,34.0239409 C115.521334,34.5466102 115.866664,34.9386063 116.352,35.1999409 C116.837336,35.4612756 117.471996,35.5919409 118.256,35.5919409 C119.040004,35.5919409 119.991994,35.517275 121.112,35.3679409 L122.176,39.3439409 Z M139.352,17.5599409 C139.090665,17.4479404 138.829335,17.3359415 138.568,17.2239409 C138.343999,17.1492739 138.082668,17.074608 137.784,16.9999409 C137.485332,16.9252739 137.168002,16.8879409 136.832,16.8879409 C135.749328,16.8879409 134.741338,17.0652725 133.808,17.4199409 C132.874662,17.7746094 132.072003,18.2506046 131.4,18.8479409 C130.727997,19.4452773 130.196002,20.1452703 129.804,20.9479409 C129.411998,21.7506116 129.216,22.5999365 129.216,23.4959409 L129.16,40 L123.728,40 L123.728,12.5759409 L128.04,12.5759409 L129.16,15.5439409 C129.90667,14.4612689 130.886661,13.5932775 132.1,12.9399409 C133.313339,12.2866043 134.834657,11.9599409 136.664,11.9599409 C137.858673,11.9599409 139.221326,12.1279393 140.752,12.4639409 L139.352,17.5599409 Z M153.448,40.0719409 C151.506657,40.0719409 149.686675,39.7079446 147.988,38.9799409 C146.289325,38.2519373 144.80534,37.2532806 143.536,35.9839409 C142.26666,34.7146013 141.268004,33.2212829 140.54,31.5039409 C139.811996,29.786599 139.448,27.957284 139.448,26.0159409 C139.448,24.0745979 139.79333,22.2452829 140.484,20.5279409 C141.17467,18.810599 142.107994,17.3172806 143.284,16.0479409 C144.460006,14.7786013 145.831992,13.7799446 147.4,13.0519409 C148.968008,12.3239373 150.647991,11.9599409 152.44,11.9599409 C154.269342,11.9599409 155.958659,12.2772711 157.508,12.9119409 C159.057341,13.5466108 160.401328,14.5359342 161.54,15.8799409 C162.678672,17.2239477 163.56533,18.9319306 164.2,21.0039409 C164.83467,23.0759513 165.152,25.5492599 165.152,28.4239409 L145.216,28.4239409 C145.477335,29.3946125 145.887997,30.2999367 146.448,31.1399409 C147.008003,31.9799451 147.670663,32.7079379 148.436,33.3239409 C149.201337,33.939944 150.059995,34.4159393 151.012,34.7519409 C151.964005,35.0879426 152.962661,35.2559409 154.008,35.2559409 C155.426674,35.2559409 156.742661,34.9946102 157.956,34.4719409 C159.169339,33.9492717 160.205329,33.2586119 161.064,32.3999409 L164.424,35.7599409 C163.117327,37.0666141 161.521343,38.111937 159.636,38.8959409 C157.750657,39.6799449 155.688011,40.0719409 153.448,40.0719409 L153.448,40.0719409 Z M152.44,16.8879409 C151.581329,16.8879409 150.769337,17.0559393 150.004,17.3919409 C149.238663,17.7279426 148.529337,18.1946046 147.876,18.7919409 C147.222663,19.3892773 146.662669,20.0986035 146.196,20.9199409 C145.729331,21.7412784 145.384001,22.6372694 145.16,23.6079409 L159.328,23.6079409 C159.253333,22.7119365 159.048002,21.8532784 158.712,21.0319409 C158.375998,20.2106035 157.909336,19.491944 157.312,18.8759409 C156.714664,18.2599379 156.014671,17.7746094 155.212,17.4199409 C154.409329,17.0652725 153.485338,16.8879409 152.44,16.8879409 L152.44,16.8879409 Z M194.24,12.5759409 L194.24,40 L189.648,40 L188.808,36.3199409 C187.874662,37.5519471 186.680007,38.4852711 185.224,39.1199409 C183.767993,39.7546108 182.293341,40.0719409 180.8,40.0719409 C178.933324,40.0719409 177.188008,39.7079446 175.564,38.9799409 C173.939992,38.2519373 172.521339,37.2532806 171.308,35.9839409 C170.094661,34.7146013 169.133337,33.2212829 168.424,31.5039409 C167.714663,29.786599 167.36,27.957284 167.36,26.0159409 C167.36,24.0745979 167.714663,22.2452829 168.424,20.5279409 C169.133337,18.810599 170.094661,17.3172806 171.308,16.0479409 C172.521339,14.7786013 173.939992,13.7799446 175.564,13.0519409 C177.188008,12.3239373 178.933324,11.9599409 180.8,11.9599409 C182.293341,11.9599409 183.73066,12.2492714 185.112,12.8279409 C186.49334,13.4066105 187.725328,14.3119348 188.808,15.5439409 L189.648,12.5759409 L194.24,12.5759409 Z M180.8,35.2559409 C181.882672,35.2559409 182.909328,35.0132767 183.88,34.5279409 C184.850671,34.0426052 185.690663,33.3799451 186.4,32.5399409 C187.109337,31.6999367 187.669331,30.7199465 188.08,29.5999409 C188.490669,28.4799353 188.696,27.2852806 188.696,26.0159409 C188.696,24.7466013 188.490669,23.5519465 188.08,22.4319409 C187.669331,21.3119353 187.109337,20.3319451 186.4,19.4919409 C185.690663,18.6519367 184.850671,17.9892767 183.88,17.5039409 C182.909328,17.0186052 181.882672,16.7759409 180.8,16.7759409 C179.717328,16.7759409 178.690671,17.0186052 177.72,17.5039409 C176.749328,17.9892767 175.909337,18.6519367 175.2,19.4919409 C174.490663,20.3319451 173.930669,21.3119353 173.52,22.4319409 C173.109331,23.5519465 172.904,24.7466013 172.904,26.0159409 C172.904,27.2852806 173.109331,28.4799353 173.52,29.5999409 C173.930669,30.7199465 174.490663,31.6999367 175.2,32.5399409 C175.909337,33.3799451 176.749328,34.0426052 177.72,34.5279409 C178.690671,35.0132767 179.717328,35.2559409 180.8,35.2559409 L180.8,35.2559409 Z M203.616,40 L198.184,40 L198.184,12.5759409 L202.496,12.5759409 L203.616,14.8719409 C204.288003,14.087937 205.090662,13.4066105 206.024,12.8279409 C206.957338,12.2492714 208.095993,11.9599409 209.44,11.9599409 C209.962669,11.9599409 210.550663,12.0252736 211.204,12.1559409 C211.857336,12.2866083 212.52933,12.510606 213.22,12.8279409 C213.91067,13.1452759 214.57333,13.5746049 215.208,14.1159409 C215.84267,14.657277 216.383998,15.35727 216.832,16.2159409 C217.46667,15.0586018 218.427993,14.0599451 219.716,13.2199409 C221.004006,12.3799367 222.375993,11.9599409 223.832,11.9599409 C224.802671,11.9599409 225.829328,12.1092728 226.912,12.4079409 C227.994672,12.7066091 229.002662,13.2666035 229.936,14.0879409 C230.869338,14.9092784 231.634664,16.0479337 232.232,17.5039409 C232.829336,18.9599482 233.128,20.8452627 233.128,23.1599409 L233.128,40 L228.032,40 L228.032,23.1039409 C228.032,20.7892627 227.556005,19.1746122 226.604,18.2599409 C225.651995,17.3452697 224.392008,16.8879409 222.824,16.8879409 C221.629327,16.8879409 220.584004,17.3919359 219.688,18.3999409 C218.791995,19.407946 218.344,20.9945968 218.344,23.1599409 L218.344,40 L213.248,40 L213.248,23.1039409 C213.248,20.7892627 212.772005,19.1746122 211.82,18.2599409 C210.867995,17.3452697 209.608008,16.8879409 208.04,16.8879409 C206.919994,16.8879409 205.940004,17.31727 205.1,18.1759409 C204.259996,19.0346119 203.765334,20.3785985 203.616,22.2079409 L203.616,40 Z" id="Stream-Word" fill="#000000"></path>
            <path d="M52.2983968,12.8561394 L77.9045968,11.0409394 C79.5947968,10.9211394 80.6589968,12.8259394 79.6707968,14.2023394 L61.7581968,39.1527394 C61.3825968,39.6759394 60.7777968,39.9863394 60.1335968,39.9863394 L19.9645968,39.9863394 C19.3213968,39.9863394 18.7173968,39.6769394 18.3413968,39.1547394 L0.381196831,14.2043394 C-0.609403169,12.8281394 0.454796831,10.9207394 2.14639683,11.0409394 L27.6745968,12.8563394 L38.5779968,0.666539411 C39.3769968,-0.226660589 40.7769968,-0.221460589 41.5693968,0.677939411 L52.2983968,12.8561394 Z M57.6607968,36.0305467 L41.0425968,29.8199467 L41.0425968,36.0305467 L57.6607968,36.0305467 Z M39.0425968,36.0305467 L39.0425968,29.8199467 L22.4243968,36.0305467 L39.0425968,36.0305467 Z M37.1249968,28.3363394 L20.1459968,34.6743394 L7.65479683,17.3111394 L37.1249968,28.3363394 Z M42.9255968,28.3363394 L59.9045968,34.6743394 L72.3957968,17.3111394 L42.9255968,28.3363394 Z M39.0585968,26.8871394 L39.0585968,5.98953941 L25.1757968,21.6611394 L39.0585968,26.8871394 Z M41.0425968,26.8871394 L41.0425968,5.99213941 L54.9255968,21.6611394 L41.0425968,26.8871394 Z M21.1045968,20.2165394 L24.2987968,16.6273394 L8.69339683,15.5089394 L21.1045968,20.2165394 Z M58.8297968,20.2165394 L55.6357968,16.6273394 L71.2411968,15.5089394 L58.8297968,20.2165394 Z" id="STREAM-MARK" fill="#006CFF"></path>
        </g>
    </g>
</svg>